<svg width="22" height="20" viewBox="0 0 22 20" fill="none" xmlns="http://www.w3.org/2000/svg">
<path d="M11 2.72701C6 2.72701 1.73 5.83701 0 10.227C1.73 14.617 6 17.727 11 17.727C16 17.727 20.27 14.617 22 10.227C20.27 5.83701 16 2.72701 11 2.72701ZM11 15.227C8.24 15.227 6 12.987 6 10.227C6 7.46701 8.24 5.22701 11 5.22701C13.76 5.22701 16 7.46701 16 10.227C16 12.987 13.76 15.227 11 15.227ZM11 7.22701C9.34 7.22701 8 8.56701 8 10.227C8 11.887 9.34 13.227 11 13.227C12.66 13.227 14 11.887 14 10.227C14 8.56701 12.66 7.22701 11 7.22701Z" fill="#BABABA"/>
<path d="M2.31348 19L19.7295 1.58399" stroke="#BABABA" stroke-width="2" stroke-linecap="round"/>
</svg>
