<svg width="10" height="11" viewBox="0 0 10 11" fill="none" xmlns="http://www.w3.org/2000/svg">
<path d="M8.4727 4.28571H7.53129V2.57143C7.53129 1.88944 7.23374 1.23539 6.70409 0.753154C6.17444 0.270918 5.45609 0 4.70706 0C3.95802 0 3.23967 0.270918 2.71002 0.753154C2.18037 1.23539 1.88282 1.88944 1.88282 2.57143V4.28571H0.941411C0.691733 4.28571 0.452282 4.37602 0.275733 4.53677C0.0991841 4.69751 0 4.91553 0 5.14286V9.42857C0 9.6559 0.0991841 9.87392 0.275733 10.0347C0.452282 10.1954 0.691733 10.2857 0.941411 10.2857H8.4727C8.72238 10.2857 8.96183 10.1954 9.13838 10.0347C9.31493 9.87392 9.41411 9.6559 9.41411 9.42857V5.14286C9.41411 4.91553 9.31493 4.69751 9.13838 4.53677C8.96183 4.37602 8.72238 4.28571 8.4727 4.28571ZM5.64847 4.28571H3.76564V2.57143C3.76564 2.3441 3.86483 2.12608 4.04138 1.96534C4.21793 1.80459 4.45738 1.71429 4.70706 1.71429C4.95673 1.71429 5.19618 1.80459 5.37273 1.96534C5.54928 2.12608 5.64847 2.3441 5.64847 2.57143V4.28571Z" fill="#121212"/>
</svg>
