<svg width="78" height="19" viewBox="0 0 78 19" fill="none" xmlns="http://www.w3.org/2000/svg">
<g opacity="0.3">
<path d="M21.8583 5.88301H24.1921L25.9651 10.4282H25.9952L27.6365 5.88301H29.8122L27.0455 12.5766H24.7568L21.8583 5.88301Z" fill="#121212"/>
<path d="M36.2201 11.4179C35.8738 11.8389 35.4371 12.1664 34.9101 12.3967C34.3831 12.627 33.8335 12.7422 33.2689 12.7422C32.7306 12.7422 32.2262 12.6594 31.7481 12.4939C31.2738 12.3284 30.8597 12.0908 30.5097 11.7849C30.1596 11.4791 29.8848 11.1084 29.6815 10.6765C29.4782 10.2447 29.3804 9.76247 29.3804 9.22987C29.3804 8.69726 29.482 8.21503 29.6815 7.78319C29.8848 7.35134 30.1596 6.98067 30.5097 6.67478C30.8597 6.36889 31.2738 6.13138 31.7481 5.96584C32.2224 5.8003 32.7306 5.71753 33.2689 5.71753C33.7695 5.71753 34.2212 5.8003 34.6316 5.96584C35.0381 6.13138 35.3844 6.36889 35.6705 6.67478C35.9528 6.98427 36.1711 7.35134 36.3255 7.78319C36.4798 8.21503 36.5551 8.69726 36.5551 9.22987V9.87763H31.5373C31.6239 10.2735 31.8121 10.5866 32.0982 10.8205C32.388 11.0544 32.7419 11.1732 33.1635 11.1732C33.5173 11.1732 33.8185 11.0976 34.0631 10.9464C34.3078 10.7953 34.5224 10.601 34.7031 10.3599L36.2201 11.4179ZM34.3906 8.47054C34.4019 8.12146 34.2815 7.82277 34.0293 7.57446C33.7808 7.32615 33.4571 7.2038 33.0656 7.2038C32.8247 7.2038 32.6139 7.23978 32.4332 7.31535C32.2525 7.38733 32.0944 7.48449 31.9664 7.59605C31.8385 7.71121 31.7368 7.84436 31.6653 7.99551C31.5938 8.14666 31.5524 8.305 31.5411 8.47054H34.3906Z" fill="#121212"/>
<path d="M37.142 5.88307H39.3027V6.95548H39.3328C39.5624 6.54163 39.8372 6.23214 40.1534 6.02702C40.4696 5.82189 40.8686 5.71753 41.3504 5.71753C41.4747 5.71753 41.5989 5.72113 41.7231 5.73192C41.8473 5.74272 41.964 5.76071 42.0694 5.7859V7.67163C41.9151 7.62484 41.7645 7.59245 41.6139 7.56726C41.4634 7.54567 41.309 7.53128 41.1472 7.53128C40.7331 7.53128 40.4094 7.58526 40.1685 7.69682C39.9275 7.80838 39.7431 7.95952 39.6151 8.15745C39.4871 8.35538 39.4005 8.5929 39.3629 8.8664C39.3253 9.1435 39.3064 9.44579 39.3064 9.77687V12.5731H37.1457V5.88307H37.142Z" fill="#121212"/>
<path d="M42.4264 3.77405C42.4264 3.44297 42.5506 3.16227 42.7953 2.92836C43.04 2.69444 43.3336 2.57568 43.6799 2.57568C44.0262 2.57568 44.3198 2.69444 44.5645 2.92836C44.8092 3.16227 44.9334 3.44297 44.9334 3.77405C44.9334 4.10513 44.8092 4.38583 44.5645 4.61975C44.3198 4.85366 44.0262 4.97242 43.6799 4.97242C43.3336 4.97242 43.04 4.85366 42.7953 4.61975C42.5506 4.38943 42.4264 4.10513 42.4264 3.77405ZM42.5995 5.88289H44.7603V12.5765H42.5995V5.88289Z" fill="#121212"/>
<path d="M46.7771 7.53481H45.3505V5.883H46.7771V4.69903C46.7771 4.33196 46.811 3.98648 46.8788 3.659C46.9465 3.33152 47.0745 3.04722 47.2665 2.79891C47.4585 2.5506 47.7333 2.35627 48.0946 2.21232C48.456 2.06838 48.9265 2 49.5138 2C49.7359 2 49.9504 2.0108 50.1612 2.02879C50.372 2.04678 50.5791 2.07917 50.7823 2.12595L50.6807 3.87492C50.5565 3.82814 50.4398 3.79575 50.3344 3.77056C50.229 3.74897 50.1085 3.73458 49.973 3.73458C49.6267 3.73458 49.367 3.80655 49.1938 3.9469C49.0206 4.09085 48.9341 4.38234 48.9341 4.82138V5.883H50.5339V7.53481H48.9341V12.573H46.7734V7.53481H46.7771Z" fill="#121212"/>
<path d="M54.5242 13.6634C54.3811 14.0197 54.2419 14.3363 54.1063 14.6134C53.9708 14.8905 53.8014 15.1209 53.5944 15.308C53.3874 15.4951 53.1276 15.6391 52.8077 15.7362C52.4915 15.8334 52.0736 15.8802 51.5542 15.8802C50.997 15.8802 50.4587 15.7974 49.9393 15.6319L50.2291 13.9369C50.5566 14.0736 50.8916 14.142 51.238 14.142C51.4789 14.142 51.6746 14.1168 51.8289 14.0664C51.9833 14.0161 52.1113 13.9441 52.2091 13.8469C52.3108 13.7498 52.3936 13.6346 52.4613 13.4943C52.5291 13.3575 52.6006 13.1956 52.6759 13.012L52.834 12.627L49.7661 5.87939H52.1L53.8993 10.2986H53.9294L55.469 5.87939H57.6862L54.5242 13.6634Z" fill="#121212"/>
<path d="M58.0717 5.88307H60.1458V6.79354H60.1759C60.2436 6.66399 60.3378 6.53803 60.4657 6.40848C60.59 6.27893 60.7405 6.16377 60.9137 6.06301C61.0869 5.96224 61.2826 5.87947 61.5047 5.81469C61.7268 5.74992 61.9639 5.71753 62.2237 5.71753C62.713 5.71753 63.1459 5.81469 63.5261 6.00543C63.9063 6.19976 64.1924 6.50205 64.3844 6.9159C64.6328 6.48405 64.9377 6.17816 65.2916 5.99463C65.6454 5.8111 66.0821 5.71753 66.6015 5.71753C67.0721 5.71753 67.4673 5.7931 67.7911 5.94425C68.111 6.09539 68.367 6.30052 68.5552 6.56323C68.7434 6.82593 68.8752 7.13182 68.958 7.48449C69.0408 7.83717 69.0822 8.21503 69.0822 8.62168V12.5731H66.9215V8.67926C66.9215 8.36618 66.85 8.09987 66.7145 7.87315C66.5752 7.65003 66.3267 7.53488 65.9729 7.53488C65.7245 7.53488 65.5137 7.57446 65.348 7.65363C65.1786 7.7328 65.0469 7.84077 64.9452 7.97752C64.8436 8.11427 64.7721 8.27621 64.7307 8.45974C64.6893 8.64328 64.6667 8.83761 64.6667 9.03913V12.5767H62.506V9.03913C62.506 8.92038 62.5022 8.77283 62.4909 8.60009C62.4796 8.42735 62.4495 8.26181 62.3893 8.10347C62.3328 7.94873 62.2387 7.81557 62.107 7.70401C61.979 7.59245 61.787 7.53847 61.5386 7.53847C61.26 7.53847 61.0342 7.58526 60.861 7.68242C60.6878 7.77959 60.5561 7.90914 60.4657 8.06748C60.3754 8.22943 60.3152 8.40936 60.2851 8.61089C60.2549 8.81242 60.2437 9.02474 60.2437 9.24426V12.5767H58.0829V5.88307H58.0717Z" fill="#121212"/>
<path d="M74.2008 13.6634C74.0578 14.0197 73.9185 14.3363 73.783 14.6134C73.6475 14.8905 73.4781 15.1209 73.271 15.308C73.064 15.4951 72.8043 15.6391 72.4843 15.7362C72.1681 15.8334 71.7503 15.8802 71.2308 15.8802C70.6737 15.8802 70.1354 15.7974 69.6159 15.6319L69.9058 13.9369C70.2332 14.0736 70.5683 14.142 70.9146 14.142C71.1555 14.142 71.3512 14.1168 71.5056 14.0664C71.6599 14.0161 71.7879 13.9441 71.8858 13.8469C71.9874 13.7498 72.0702 13.6346 72.138 13.4943C72.2057 13.3575 72.2773 13.1956 72.3525 13.012L72.5106 12.627L69.4427 5.87939H71.7766L73.5759 10.2986H73.6061L75.1457 5.87939H77.3628L74.2008 13.6634Z" fill="#121212"/>
</g>
<g opacity="0.3">
<path d="M9.02625 4.10303C5.86242 4.10859 3.30618 6.71254 3.31165 9.91612C3.31165 10.4713 3.39376 11.021 3.54703 11.554C3.54703 11.4818 3.54703 11.4152 3.54703 11.343C3.54703 9.06664 5.36431 7.22333 7.60855 7.22333C9.85278 7.22333 11.6701 9.06664 11.6701 11.343C11.6701 13.6194 9.85278 15.4627 7.60855 15.4627C7.53739 15.4627 7.4717 15.4627 7.40055 15.4627H7.3896C10.4111 16.3844 13.6023 14.641 14.5055 11.5707C15.4086 8.50032 13.6954 5.26898 10.6684 4.35288C10.1374 4.19187 9.58457 4.10859 9.03172 4.10859L9.02625 4.10303Z" fill="#121212"/>
<path d="M9.71001 0C4.70154 0 0.640015 4.11968 0.640015 9.19988C0.640015 14.2801 4.70154 18.3998 9.71001 18.3998C14.7185 18.3998 18.78 14.2801 18.78 9.19988C18.78 4.11968 14.7185 0 9.71001 0ZM9.02032 16.4343C7.31799 16.4399 5.68133 15.757 4.48258 14.5299L4.46069 14.5077C1.95919 11.9482 1.97561 7.8174 4.49353 5.28008C7.01693 2.74275 11.0894 2.75941 13.5909 5.31339C16.0924 7.87292 16.076 12.0037 13.5581 14.541C12.3484 15.7514 10.7172 16.4343 9.02032 16.4343Z" fill="#121212"/>
</g>
</svg>
