<svg width="153" height="19" viewBox="0 0 153 19" fill="none" xmlns="http://www.w3.org/2000/svg">
<g opacity="0.3">
<path d="M96.8582 5.88301H99.192L100.965 10.4282H100.995L102.636 5.88301H104.812L102.045 12.5766H99.7567L96.8582 5.88301Z" fill="#121212"/>
<path d="M111.22 11.4179C110.874 11.8389 110.437 12.1664 109.91 12.3967C109.383 12.627 108.834 12.7422 108.269 12.7422C107.731 12.7422 107.226 12.6594 106.748 12.4939C106.274 12.3284 105.86 12.0908 105.51 11.7849C105.16 11.4791 104.885 11.1084 104.682 10.6765C104.478 10.2447 104.38 9.76247 104.38 9.22987C104.38 8.69726 104.482 8.21503 104.682 7.78319C104.885 7.35134 105.16 6.98067 105.51 6.67478C105.86 6.36889 106.274 6.13138 106.748 5.96584C107.222 5.8003 107.731 5.71753 108.269 5.71753C108.77 5.71753 109.221 5.8003 109.632 5.96584C110.038 6.13138 110.384 6.36889 110.67 6.67478C110.953 6.98427 111.171 7.35134 111.325 7.78319C111.48 8.21503 111.555 8.69726 111.555 9.22987V9.87763H106.537C106.624 10.2735 106.812 10.5866 107.098 10.8205C107.388 11.0544 107.742 11.1732 108.163 11.1732C108.517 11.1732 108.818 11.0976 109.063 10.9464C109.308 10.7953 109.522 10.601 109.703 10.3599L111.22 11.4179ZM109.391 8.47054C109.402 8.12146 109.281 7.82277 109.029 7.57446C108.781 7.32615 108.457 7.2038 108.066 7.2038C107.825 7.2038 107.614 7.23978 107.433 7.31535C107.253 7.38733 107.094 7.48449 106.966 7.59605C106.838 7.71121 106.737 7.84436 106.665 7.99551C106.594 8.14666 106.552 8.305 106.541 8.47054H109.391Z" fill="#121212"/>
<path d="M112.142 5.88307H114.303V6.95548H114.333C114.562 6.54163 114.837 6.23214 115.153 6.02702C115.469 5.82189 115.868 5.71753 116.35 5.71753C116.475 5.71753 116.599 5.72113 116.723 5.73192C116.847 5.74272 116.964 5.76071 117.069 5.7859V7.67163C116.915 7.62484 116.764 7.59245 116.614 7.56726C116.463 7.54567 116.309 7.53128 116.147 7.53128C115.733 7.53128 115.409 7.58526 115.168 7.69682C114.927 7.80838 114.743 7.95952 114.615 8.15745C114.487 8.35538 114.4 8.5929 114.363 8.8664C114.325 9.1435 114.306 9.44579 114.306 9.77687V12.5731H112.146V5.88307H112.142Z" fill="#121212"/>
<path d="M117.426 3.77405C117.426 3.44297 117.55 3.16227 117.795 2.92836C118.04 2.69444 118.333 2.57568 118.68 2.57568C119.026 2.57568 119.32 2.69444 119.564 2.92836C119.809 3.16227 119.933 3.44297 119.933 3.77405C119.933 4.10513 119.809 4.38583 119.564 4.61975C119.32 4.85366 119.026 4.97242 118.68 4.97242C118.333 4.97242 118.04 4.85366 117.795 4.61975C117.55 4.38943 117.426 4.10513 117.426 3.77405ZM117.599 5.88289H119.76V12.5765H117.599V5.88289Z" fill="#121212"/>
<path d="M121.777 7.53481H120.35V5.883H121.777V4.69903C121.777 4.33196 121.811 3.98648 121.879 3.659C121.946 3.33152 122.074 3.04722 122.266 2.79891C122.458 2.5506 122.733 2.35627 123.095 2.21232C123.456 2.06838 123.926 2 124.514 2C124.736 2 124.95 2.0108 125.161 2.02879C125.372 2.04678 125.579 2.07917 125.782 2.12595L125.681 3.87492C125.556 3.82814 125.44 3.79575 125.334 3.77056C125.229 3.74897 125.108 3.73458 124.973 3.73458C124.627 3.73458 124.367 3.80655 124.194 3.9469C124.021 4.09085 123.934 4.38234 123.934 4.82138V5.883H125.534V7.53481H123.934V12.573H121.773V7.53481H121.777Z" fill="#121212"/>
<path d="M129.524 13.6634C129.381 14.0197 129.242 14.3363 129.106 14.6134C128.971 14.8905 128.801 15.1209 128.594 15.308C128.387 15.4951 128.128 15.6391 127.808 15.7362C127.491 15.8334 127.074 15.8802 126.554 15.8802C125.997 15.8802 125.459 15.7974 124.939 15.6319L125.229 13.9369C125.557 14.0736 125.892 14.142 126.238 14.142C126.479 14.142 126.675 14.1168 126.829 14.0664C126.983 14.0161 127.111 13.9441 127.209 13.8469C127.311 13.7498 127.394 13.6346 127.461 13.4943C127.529 13.3575 127.601 13.1956 127.676 13.012L127.834 12.627L124.766 5.87939H127.1L128.899 10.2986H128.929L130.469 5.87939H132.686L129.524 13.6634Z" fill="#121212"/>
<path d="M133.072 5.88307H135.146V6.79354H135.176C135.244 6.66399 135.338 6.53803 135.466 6.40848C135.59 6.27893 135.74 6.16377 135.914 6.06301C136.087 5.96224 136.282 5.87947 136.505 5.81469C136.727 5.74992 136.964 5.71753 137.224 5.71753C137.713 5.71753 138.146 5.81469 138.526 6.00543C138.906 6.19976 139.192 6.50205 139.384 6.9159C139.633 6.48405 139.938 6.17816 140.291 5.99463C140.645 5.8111 141.082 5.71753 141.601 5.71753C142.072 5.71753 142.467 5.7931 142.791 5.94425C143.111 6.09539 143.367 6.30052 143.555 6.56323C143.743 6.82593 143.875 7.13182 143.958 7.48449C144.041 7.83717 144.082 8.21503 144.082 8.62168V12.5731H141.921V8.67926C141.921 8.36618 141.85 8.09987 141.714 7.87315C141.575 7.65003 141.327 7.53488 140.973 7.53488C140.724 7.53488 140.514 7.57446 140.348 7.65363C140.179 7.7328 140.047 7.84077 139.945 7.97752C139.843 8.11427 139.772 8.27621 139.731 8.45974C139.689 8.64328 139.667 8.83761 139.667 9.03913V12.5767H137.506V9.03913C137.506 8.92038 137.502 8.77283 137.491 8.60009C137.48 8.42735 137.449 8.26181 137.389 8.10347C137.333 7.94873 137.239 7.81557 137.107 7.70401C136.979 7.59245 136.787 7.53847 136.538 7.53847C136.26 7.53847 136.034 7.58526 135.861 7.68242C135.688 7.77959 135.556 7.90914 135.466 8.06748C135.375 8.22943 135.315 8.40936 135.285 8.61089C135.255 8.81242 135.244 9.02474 135.244 9.24426V12.5767H133.083V5.88307H133.072Z" fill="#121212"/>
<path d="M149.201 13.6634C149.058 14.0197 148.918 14.3363 148.783 14.6134C148.647 14.8905 148.478 15.1209 148.271 15.308C148.064 15.4951 147.804 15.6391 147.484 15.7362C147.168 15.8334 146.75 15.8802 146.231 15.8802C145.674 15.8802 145.135 15.7974 144.616 15.6319L144.906 13.9369C145.233 14.0736 145.568 14.142 145.914 14.142C146.155 14.142 146.351 14.1168 146.505 14.0664C146.66 14.0161 146.788 13.9441 146.886 13.8469C146.987 13.7498 147.07 13.6346 147.138 13.4943C147.206 13.3575 147.277 13.1956 147.352 13.012L147.511 12.627L144.443 5.87939H146.776L148.576 10.2986H148.606L150.146 5.87939H152.363L149.201 13.6634Z" fill="#121212"/>
</g>
<g opacity="0.3">
<path d="M84.0261 4.10303C80.8623 4.10859 78.3061 6.71254 78.3115 9.91612C78.3115 10.4713 78.3936 11.021 78.5469 11.554C78.5469 11.4818 78.5469 11.4152 78.5469 11.343C78.5469 9.06664 80.3642 7.22333 82.6084 7.22333C84.8527 7.22333 86.6699 9.06664 86.6699 11.343C86.6699 13.6194 84.8527 15.4627 82.6084 15.4627C82.5373 15.4627 82.4716 15.4627 82.4004 15.4627H82.3895C85.411 16.3844 88.6022 14.641 89.5053 11.5707C90.4085 8.50032 88.6952 5.26898 85.6683 4.35288C85.1373 4.19187 84.5844 4.10859 84.0316 4.10859L84.0261 4.10303Z" fill="#121212"/>
<path d="M84.7099 0C79.7014 0 75.6399 4.11968 75.6399 9.19988C75.6399 14.2801 79.7014 18.3998 84.7099 18.3998C89.7184 18.3998 93.7799 14.2801 93.7799 9.19988C93.7799 4.11968 89.7184 0 84.7099 0ZM84.0202 16.4343C82.3179 16.4399 80.6812 15.757 79.4825 14.5299L79.4606 14.5077C76.9591 11.9482 76.9755 7.8174 79.4934 5.28008C82.0168 2.74275 86.0893 2.75941 88.5908 5.31339C91.0923 7.87292 91.0759 12.0037 88.5579 14.541C87.3482 15.7514 85.7171 16.4343 84.0202 16.4343Z" fill="#121212"/>
</g>
<path d="M19.0078 12.1392C18.4377 12.1392 17.9538 12.0398 17.5561 11.8409C17.1617 11.642 16.8667 11.3852 16.6712 11.0703C16.4756 10.7521 16.3778 10.4157 16.3778 10.0611H17.1634C17.1634 10.3097 17.2379 10.5417 17.3871 10.7571C17.5362 10.9692 17.75 11.1399 18.0284 11.2692C18.3068 11.3984 18.6316 11.4631 19.0028 11.4631C19.6061 11.4631 20.0684 11.352 20.3899 11.13C20.7147 10.9046 20.8771 10.5748 20.8771 10.1406C20.8771 9.74953 20.718 9.45952 20.3999 9.2706C20.0817 9.07836 19.6309 8.93916 19.0476 8.85298C18.5869 8.78007 18.1776 8.68063 17.8196 8.55469C17.4616 8.42874 17.1617 8.23651 16.9197 7.97798C16.6778 7.71946 16.5568 7.37974 16.5568 6.95881C16.5568 6.6108 16.6397 6.29759 16.8054 6.01918C16.9711 5.73745 17.2346 5.51207 17.5959 5.34304C17.9605 5.17401 18.4228 5.08949 18.983 5.08949C19.4934 5.08949 19.9292 5.17069 20.2905 5.3331C20.6518 5.49219 20.9252 5.71425 21.1108 5.99929C21.2964 6.28433 21.3892 6.61411 21.3892 6.98864H20.6037C20.6037 6.75 20.5391 6.53954 20.4098 6.35724C20.2839 6.17495 20.0982 6.03409 19.853 5.93466C19.611 5.83523 19.3194 5.78551 18.978 5.78551C18.388 5.78551 17.9671 5.89654 17.7152 6.11861C17.4633 6.33736 17.3374 6.61742 17.3374 6.95881C17.3374 7.31676 17.4981 7.5902 17.8196 7.77912C18.1444 7.96804 18.6333 8.10393 19.2862 8.18679C19.9789 8.28954 20.549 8.48509 20.9964 8.77344C21.4439 9.05848 21.6676 9.5142 21.6676 10.1406C21.6676 10.5549 21.5616 10.9129 21.3494 11.2145C21.1373 11.5128 20.8307 11.7415 20.4297 11.9006C20.032 12.0597 19.558 12.1392 19.0078 12.1392ZM27.4794 9.3402C27.4794 9.38329 27.4744 9.48769 27.4645 9.65341H23.1989C23.2287 10.008 23.3281 10.3196 23.4972 10.5881C23.6695 10.8565 23.8849 11.0637 24.1435 11.2095C24.402 11.3554 24.6787 11.4283 24.9737 11.4283C25.3284 11.4283 25.6349 11.3487 25.8935 11.1896C26.1553 11.0305 26.3459 10.8002 26.4652 10.4986H27.3104C27.2109 10.8101 27.0485 11.0902 26.8232 11.3388C26.5978 11.5874 26.326 11.7829 26.0078 11.9254C25.6929 12.0679 25.3532 12.1392 24.9886 12.1392C24.518 12.1392 24.0871 12.0199 23.696 11.7813C23.3049 11.5426 22.9967 11.2195 22.7713 10.8118C22.5459 10.4041 22.4332 9.95668 22.4332 9.46946C22.4332 8.98224 22.5459 8.5348 22.7713 8.12713C22.9967 7.71946 23.3049 7.39631 23.696 7.15767C24.0871 6.91903 24.518 6.79972 24.9886 6.79972C25.456 6.79972 25.8802 6.91738 26.2614 7.1527C26.6425 7.38471 26.9408 7.69626 27.1562 8.08736C27.3717 8.47514 27.4794 8.89276 27.4794 9.3402ZM26.7038 8.97727C26.6873 8.71875 26.5994 8.47846 26.4403 8.25639C26.2812 8.03101 26.0724 7.85204 25.8139 7.71946C25.5554 7.58357 25.277 7.51563 24.9787 7.51563C24.7036 7.51563 24.4434 7.57363 24.1982 7.68963C23.9562 7.80563 23.7491 7.97467 23.5767 8.19673C23.4077 8.41548 23.2933 8.67566 23.2337 8.97727H26.7038ZM30.7855 12.1392C30.3116 12.1392 29.8774 12.0199 29.483 11.7813C29.0885 11.5426 28.777 11.2195 28.5483 10.8118C28.3229 10.4041 28.2102 9.95668 28.2102 9.46946C28.2102 8.98224 28.3229 8.5348 28.5483 8.12713C28.777 7.71946 29.0885 7.39631 29.483 7.15767C29.8774 6.91903 30.3116 6.79972 30.7855 6.79972C31.17 6.79972 31.5246 6.87429 31.8494 7.02344C32.1776 7.17259 32.456 7.37974 32.6847 7.64489C32.9133 7.91004 33.0807 8.21496 33.1868 8.55966H32.4013C32.2654 8.22822 32.0533 7.97135 31.7649 7.78906C31.4766 7.60677 31.1501 7.51563 30.7855 7.51563C30.474 7.51563 30.179 7.59683 29.9006 7.75923C29.6222 7.91832 29.3968 8.14702 29.2244 8.44531C29.0554 8.74361 28.9709 9.08499 28.9709 9.46946C28.9709 9.85724 29.0554 10.2003 29.2244 10.4986C29.3968 10.7969 29.6222 11.0272 29.9006 11.1896C30.179 11.3487 30.474 11.4283 30.7855 11.4283C31.1534 11.4283 31.4799 11.3355 31.7649 11.1499C32.0533 10.9643 32.2654 10.6974 32.4013 10.3494H33.1818C33.0824 10.7041 32.9183 11.0173 32.6896 11.2891C32.4609 11.5575 32.1825 11.7663 31.8544 11.9155C31.5263 12.0646 31.17 12.1392 30.7855 12.1392ZM36.5178 12.1392C36.0571 12.1392 35.6544 12.0514 35.3097 11.8757C34.9683 11.6967 34.7015 11.4216 34.5092 11.0504C34.3203 10.6759 34.2258 10.2069 34.2258 9.64347V6.93892H34.9815V9.62358C34.9815 10.2135 35.1125 10.661 35.3743 10.9659C35.6394 11.2708 36.0173 11.4233 36.5078 11.4233C36.9983 11.4233 37.3745 11.2725 37.6364 10.9709C37.9015 10.666 38.0341 10.2169 38.0341 9.62358V6.93892H38.7898V9.64347C38.7898 10.2069 38.6937 10.6759 38.5014 11.0504C38.3092 11.4216 38.0424 11.6967 37.701 11.8757C37.3629 12.0514 36.9685 12.1392 36.5178 12.1392ZM40.3459 12V6.93892H41.0817V8.1321C41.2109 7.76089 41.4131 7.46922 41.6882 7.2571C41.9666 7.04498 42.2931 6.93892 42.6676 6.93892H43.1449V7.61009H42.7074C42.4025 7.61009 42.129 7.68963 41.8871 7.84872C41.6484 8.00781 41.4595 8.23982 41.3203 8.54474C41.1811 8.84635 41.1115 9.20099 41.1115 9.60867V12H40.3459ZM48.5291 9.3402C48.5291 9.38329 48.5241 9.48769 48.5142 9.65341H44.2486C44.2784 10.008 44.3778 10.3196 44.5469 10.5881C44.7192 10.8565 44.9347 11.0637 45.1932 11.2095C45.4517 11.3554 45.7285 11.4283 46.0234 11.4283C46.3781 11.4283 46.6847 11.3487 46.9432 11.1896C47.205 11.0305 47.3956 10.8002 47.5149 10.4986H48.3601C48.2606 10.8101 48.0982 11.0902 47.8729 11.3388C47.6475 11.5874 47.3757 11.7829 47.0575 11.9254C46.7427 12.0679 46.4029 12.1392 46.0383 12.1392C45.5677 12.1392 45.1368 12.0199 44.7457 11.7813C44.3546 11.5426 44.0464 11.2195 43.821 10.8118C43.5956 10.4041 43.483 9.95668 43.483 9.46946C43.483 8.98224 43.5956 8.5348 43.821 8.12713C44.0464 7.71946 44.3546 7.39631 44.7457 7.15767C45.1368 6.91903 45.5677 6.79972 46.0383 6.79972C46.5057 6.79972 46.9299 6.91738 47.3111 7.1527C47.6922 7.38471 47.9905 7.69626 48.206 8.08736C48.4214 8.47514 48.5291 8.89276 48.5291 9.3402ZM47.7535 8.97727C47.737 8.71875 47.6491 8.47846 47.4901 8.25639C47.331 8.03101 47.1222 7.85204 46.8636 7.71946C46.6051 7.58357 46.3267 7.51563 46.0284 7.51563C45.7533 7.51563 45.4931 7.57363 45.2479 7.68963C45.0059 7.80563 44.7988 7.97467 44.6264 8.19673C44.4574 8.41548 44.343 8.67566 44.2834 8.97727H47.7535ZM51.7557 12.1392C51.2917 12.1392 50.8691 12.0215 50.4879 11.7862C50.1068 11.5476 49.8068 11.2244 49.5881 10.8168C49.3693 10.4091 49.2599 9.95999 49.2599 9.46946C49.2599 8.97893 49.3677 8.52983 49.5831 8.12216C49.8018 7.71449 50.1018 7.39299 50.4829 7.15767C50.8641 6.91903 51.2917 6.79972 51.7656 6.79972C52.0772 6.79972 52.3655 6.85938 52.6307 6.97869C52.8991 7.09801 53.1278 7.25379 53.3168 7.44602C53.509 7.63826 53.6565 7.84706 53.7592 8.07244L53.7443 7.59517V5H54.505V12H53.7741V10.8615C53.6615 11.1068 53.5057 11.3272 53.3068 11.5227C53.1113 11.715 52.8793 11.8658 52.6108 11.9751C52.3456 12.0845 52.0606 12.1392 51.7557 12.1392ZM51.88 11.4283C52.2213 11.4283 52.5346 11.3421 52.8196 11.1697C53.1079 10.9974 53.335 10.7621 53.5007 10.4638C53.6664 10.1655 53.7493 9.83404 53.7493 9.46946C53.7493 9.11151 53.6648 8.78338 53.4957 8.48509C53.33 8.18679 53.1046 7.95147 52.8196 7.77912C52.5346 7.60346 52.2213 7.51563 51.88 7.51563C51.5386 7.51563 51.2237 7.6018 50.9354 7.77415C50.6503 7.94318 50.4249 8.17685 50.2592 8.47514C50.0935 8.77344 50.0106 9.10488 50.0106 9.46946C50.0106 9.83404 50.0919 10.1655 50.2543 10.4638C50.42 10.7621 50.6454 10.9974 50.9304 11.1697C51.2154 11.3421 51.532 11.4283 51.88 11.4283ZM61.4801 12.1392C61.0459 12.1392 60.6465 12.0249 60.282 11.7962C59.9174 11.5675 59.6439 11.2559 59.4616 10.8615V12H58.7308V5H59.4964V7.37145L59.4766 8.07244C59.5892 7.83049 59.7434 7.61506 59.9389 7.42614C60.1378 7.2339 60.3681 7.0831 60.63 6.97372C60.8918 6.86103 61.1719 6.80469 61.4702 6.80469C61.9375 6.80469 62.3617 6.92401 62.7429 7.16264C63.1274 7.39796 63.429 7.71946 63.6477 8.12713C63.8665 8.5348 63.9758 8.98224 63.9758 9.46946C63.9758 9.95999 63.8665 10.4091 63.6477 10.8168C63.429 11.2244 63.129 11.5476 62.7479 11.7862C62.3667 12.0215 61.9441 12.1392 61.4801 12.1392ZM61.3558 11.4283C61.6939 11.4283 62.0054 11.3454 62.2905 11.1797C62.5755 11.014 62.8009 10.782 62.9666 10.4837C63.1356 10.1854 63.2202 9.8473 63.2202 9.46946C63.2202 9.09825 63.1356 8.76515 62.9666 8.47017C62.8009 8.17188 62.5755 7.93821 62.2905 7.76918C62.0054 7.60014 61.6922 7.51563 61.3508 7.51563C61.0128 7.51563 60.7012 7.60346 60.4162 7.77912C60.1311 7.95147 59.9041 8.18679 59.7351 8.48509C59.5694 8.78338 59.4865 9.11151 59.4865 9.46946C59.4865 9.83736 59.5694 10.1705 59.7351 10.4688C59.9041 10.767 60.1311 11.0024 60.4162 11.1747C60.7045 11.3438 61.0177 11.4283 61.3558 11.4283ZM64.5923 13.7301V13.0838H65.4325C65.6347 13.0838 65.8004 13.0457 65.9297 12.9695C66.0589 12.8932 66.1667 12.7805 66.2528 12.6314C66.3423 12.4856 66.4401 12.2784 66.5462 12.0099L66.5909 11.8757L64.5675 6.94389H65.3729L66.8793 10.6626L66.9936 11.0852L67.1229 10.6676L68.6143 6.94389L69.4247 6.93892L67.4212 11.8558C67.2157 12.3596 67.0317 12.7391 66.8693 12.9943C66.7069 13.2528 66.5147 13.4401 66.2926 13.5561C66.0705 13.6721 65.7789 13.7301 65.4176 13.7301H64.5923Z" fill="#B9B9B9"/>
<path opacity="0.25" d="M8.4727 7.28571H7.53129V5.57143C7.53129 4.88944 7.23374 4.23539 6.70409 3.75315C6.17444 3.27092 5.45609 3 4.70706 3C3.95802 3 3.23967 3.27092 2.71002 3.75315C2.18037 4.23539 1.88282 4.88944 1.88282 5.57143V7.28571H0.941411C0.691733 7.28571 0.452282 7.37602 0.275733 7.53677C0.0991841 7.69751 0 7.91553 0 8.14286V12.4286C0 12.6559 0.0991841 12.8739 0.275733 13.0347C0.452282 13.1954 0.691733 13.2857 0.941411 13.2857H8.4727C8.72238 13.2857 8.96183 13.1954 9.13838 13.0347C9.31493 12.8739 9.41411 12.6559 9.41411 12.4286V8.14286C9.41411 7.91553 9.31493 7.69751 9.13838 7.53677C8.96183 7.37602 8.72238 7.28571 8.4727 7.28571ZM5.64847 7.28571H3.76564V5.57143C3.76564 5.3441 3.86483 5.12608 4.04138 4.96534C4.21793 4.80459 4.45738 4.71429 4.70706 4.71429C4.95673 4.71429 5.19618 4.80459 5.37273 4.96534C5.54928 5.12608 5.64847 5.3441 5.64847 5.57143V7.28571Z" fill="#121212"/>
</svg>
