<svg width="50" height="50" viewBox="0 0 50 50" fill="none" xmlns="http://www.w3.org/2000/svg">
<circle cx="25" cy="25" r="25" fill="#121212"/>
<path d="M37.2936 21.4611C37.6097 22.5708 37.7614 23.7208 37.744 24.8745C37.7435 27.4202 36.9882 29.9087 35.5735 32.0251C34.1588 34.1416 32.1483 35.7911 29.7962 36.765C27.4441 37.7389 24.8561 37.9934 22.3593 37.4965C19.8626 36.9995 17.5692 35.7734 15.7693 33.9732C13.9693 32.1729 12.7436 29.8793 12.2472 27.3825C11.7507 24.8856 12.0057 22.2976 12.9801 19.9457C13.9544 17.5938 15.6042 15.5836 17.7209 14.1693C19.8377 12.755 22.3262 12.0001 24.872 12.0001C27.2624 11.9885 29.6067 12.6583 31.6301 13.9311" fill="#121212"/>
<path d="M37.2936 21.4611C37.6097 22.5708 37.7614 23.7208 37.744 24.8745C37.7435 27.4202 36.9882 29.9087 35.5735 32.0251C34.1588 34.1416 32.1483 35.7911 29.7962 36.765C27.4441 37.7389 24.8561 37.9934 22.3593 37.4965C19.8626 36.9996 17.5692 35.7734 15.7693 33.9732C13.9693 32.1729 12.7436 29.8793 12.2472 27.3825C11.7507 24.8856 12.0057 22.2976 12.9801 19.9457C13.9544 17.5938 15.6042 15.5836 17.7209 14.1693C19.8377 12.755 22.3262 12.0001 24.872 12.0001C27.2624 11.9885 29.6067 12.6583 31.6301 13.9311" stroke="#FBC81D" stroke-width="2.61302" stroke-miterlimit="10"/>
<path d="M19.4417 22.0175L24.5903 27.1661L38.7499 13.007" fill="#121212"/>
<path d="M19.4417 22.0175L24.5903 27.1661L38.7499 13.007" stroke="white" stroke-width="2.34646" stroke-miterlimit="10" stroke-linecap="square"/>
</svg>
